<svg xmlns="http://www.w3.org/2000/svg" width="44" height="43" viewBox="0 0 44 43">
  <g id="ahrefs" transform="translate(0.207 0)">
    <g id="Gruppe_1526" data-name="Gruppe 1526" transform="translate(-0.001 0)">
      <rect id="Background" width="44" height="43" rx="1" transform="translate(-0.207 -0.001)" fill="#074ada"/>
      <path id="a" d="M-988.882,66.059h10.036V59.368h-10.036V56.023H-975.5v3.345h3.346V79.44h-16.723V76.092h-3.349V69.4h3.345Zm3.345,3.345v6.691h6.691V69.4Zm-6.69-10.036h3.345v3.345h-3.345Z" transform="translate(1003.895 -46.068)" fill="#f08700"/>
    </g>
    <path id="a-2" data-name="a" d="M-988.882,66.059h10.036V59.368h-10.036V56.023H-975.5v3.345h3.346V79.44h-16.723V76.092h-3.349V69.4h3.345Zm3.345,3.345v6.691h6.691V69.4Zm-6.69-10.036h3.345v3.345h-3.345Z" transform="translate(1003.89 -46.066)" fill="#f08700"/>
  </g>
</svg>
