<svg xmlns="http://www.w3.org/2000/svg" width="42.436" height="42.437" viewBox="0 0 42.436 42.437">
  <g id="majestic" transform="translate(0 0)">
    <g id="Gruppe_1528" data-name="Gruppe 1528" transform="translate(0 0)">
      <rect id="Background" width="42.436" height="42.436" rx="1" transform="translate(0)" fill="#f18946"/>
      <path id="Pfad_6697" data-name="Pfad 6697" d="M-280.19,66.1q1.809,3.6,3.559,7.25,4.949.72,9.824,1.89c-2.616.916-5.187,1.945-7.733,3.093.931,2.562,1.785,5.149,2.6,7.763-2.578-1.841-5.184-3.607-7.872-5.227a75.414,75.414,0,0,0-7.673,4.689q1.022-3.932,2.235-7.785-3.985-2.221-8.06-4.208c3.3-.37,6.6-.586,9.911-.646Q-281.837,69.484-280.19,66.1Z" transform="translate(301.276 -54.881)" fill="#fff"/>
    </g>
  </g>
</svg>
