<svg id="e2Hjws4pVbY1" xmlns="http://www.w3.org/2000/svg" xmlns:xlink="http://www.w3.org/1999/xlink" viewBox="-13 -42 220 220" shape-rendering="geometricPrecision" text-rendering="geometricPrecision"><defs><linearGradient id="e2Hjws4pVbY2-fill" x1="-14.647" y1="54.2922" x2="656.5567" y2="54.2922" spreadMethod="pad" gradientUnits="userSpaceOnUse" gradientTransform="translate(0 0)"><stop id="e2Hjws4pVbY2-fill-0" offset="0%" stop-color="#da8cff"/><stop id="e2Hjws4pVbY2-fill-1" offset="100%" stop-color="#9a55ff"/></linearGradient><linearGradient id="e2Hjws4pVbY3-fill" x1="-14.647" y1="54.2922" x2="656.5567" y2="54.2922" spreadMethod="pad" gradientUnits="userSpaceOnUse" gradientTransform="translate(0 0)"><stop id="e2Hjws4pVbY3-fill-0" offset="0%" stop-color="#da8cff"/><stop id="e2Hjws4pVbY3-fill-1" offset="100%" stop-color="#9a55ff"/></linearGradient></defs><path d="M228.5917,107.892033v71.122592h-49.5917v-182.94h80.301203c15.769749,0,29.464527,2.613429,40.669347,7.840286s19.71218,12.133774,25.522087,20.534081C331.095047,33.035971,334,42.182973,334,52.076665c0,8.400308-2.282463,16.800614-6.847388,25.200919s-12.4498,15.680571-23.65462,21.654122-25.937082,8.960327-44.404284,8.960327h-30.502008Zm48.554217-39.948122c4.35743-3.920143,6.432396-9.333673,6.432396-15.867246c0-6.346897-2.282463-11.760427-6.639893-15.867245s-10.374832-6.160224-17.637217-6.160224h-30.709503v43.868265h30.709503c7.677379,0,13.487285-1.866733,17.844714-5.97355Z" transform="translate(-166-33.81441)" fill="url(#e2Hjws4pVbY2-fill)"/><path d="M228.5917,119.834414v.095586h-49.5917L179,5.3h80.301205c15.769746,0,29.464525,2.676931,40.669344,8.030794s19.712181,12.428609,25.522088,21.033031C331.095047,43.159456,334,52.528716,334,62.662812c0,8.604421-2.282464,17.208843-6.84739,25.813264s-12.449798,16.061588-23.654618,22.180289-25.937081,9.178049-44.404285,9.178049h-30.502007Zm48.554216-40.918805c4.35743-4.015398,6.432398-9.56047,6.432398-16.252797c0-6.501119-2.282464-12.04619-6.639894-16.252796s-10.374833-6.309911-17.637215-6.309911h-30.709505v44.934204h30.709505c7.677377,0,13.487282-1.912094,17.844711-6.1187Z" transform="translate(-166 48.50001)" fill="url(#e2Hjws4pVbY3-fill)"/></svg>
